<svg version="1.1" id="Layer_1" xmlns="http://www.w3.org/2000/svg" xmlns:xlink="http://www.w3.org/1999/xlink" x="0px"
    y="0px" style="enable-background:new 0 0 3000 2000;" xml:space="preserve" viewBox="464.3 324.27 2071.4 1351.78">
    <style type="text/css">
        .st0 {
            fill: #32252D;
        }

        .st1 {
            fill: url(#SVGID_1_);
        }

        .st2 {
            fill: #FAC700;
        }

        .st3 {
            fill-rule: evenodd;
            clip-rule: evenodd;
            fill: #F7B200;
        }

        .st4 {
            fill-rule: evenodd;
            clip-rule: evenodd;
            fill: url(#SVGID_00000078748623494464388510000015252574146706687138_);
        }

        .st5 {
            fill: #2C2F7F;
        }

        .st6 {
            fill-rule: evenodd;
            clip-rule: evenodd;
            fill: #2C2F7F;
        }
    </style>
    <g>
        <g>
            <path class="st0" d="M944.2,1049.5h160.9v45.9h-102.9v71.6h97.8v45.8h-97.8v127.5h-58.1V1049.5z"></path>
            <path class="st0" d="M1481,1049.5h58v290.8h-58V1049.5z"></path>
            <path class="st0"
                d="M2091.2,1102.8c-18.2-8.1-38.5-12.6-58.9-12.6c-19.9,0-45.6,8.8-45.6,40.4c0,50.5,127,29.1,127,126.7 			c0,63.8-50.2,87.9-108.7,87.9c-31.6,0-45.7-4.1-74.3-11.2l5.5-52.4c19.8,10.8,42.7,17.9,65.5,17.9c22,0,51.5-11.2,51.5-37.5 			c0-55.4-126.9-32.4-126.9-128.8c0-65,50.1-88.8,101.1-88.8c25,0,48.3,3.4,69.3,10.5L2091.2,1102.8z">
            </path>
            <linearGradient id="SVGID_1_" gradientUnits="userSpaceOnUse" x1="1475.2168" y1="914.8649" x2="2153.5933"
                y2="316.1199">
                <stop offset="0" style="stop-color:#F7B200"></stop>
                <stop offset="1" style="stop-color:#FDF4DD"></stop>
            </linearGradient>
            <path class="st1"
                d="M1526.8,955.4c4-3.6,5.1-6.2,8.2-9.9c3.6-3.9,5.9-5.9,9.2-9.8c3.8-4.4,5-7.5,9-12.1c2.2-2.2,3.8-3.4,6-6.1 			c2.9-2.1,4.6-3.4,6.8-6.1c3.6-3.4,4.1-6.8,7.5-9.8c2.4-2.4,4.6-2.4,6.8-4.6c1.2-1.9,0.4-4.2,2.3-5.3c0.9-0.4,2.2,0.4,3-0.8 			c0.6-0.6,2.9-3.4,4.6-5.3c2.5-2.6,4.1-3.4,6-6.1c1.9-1.9,2.1-4,4.6-5.3c0.8-0.8,2-0.8,2.2-1.5c1.5-1.9,2.2-1.7,4.5-3.9 			c1.4-1.2,0.5-3.1,1.5-4.6c1.6-1.6,2.9-1.7,5.4-2.3c1-0.3,0.7-2.3,2.2-3c0.6-1,1.4-1,2.2-1.5c2.3-1.5,2.2-3.4,3.9-5.3 			c1.3-1.5,2.6-1.9,3.7-3.8c1.1-0.9,1.2-2,2.3-3.1c2.6-4.6,6.3-5.1,9.8-9c3-2.8,4.4-4.6,6.8-7.7c1.2-0.9,1.6-1.8,3-3 			c1.2-1.4,2.8-2.1,3.7-3.8c1.7-1.6,2-2.1,6.8-5.3c0.5-0.6,0.2-1.5,0.7-2.2c0.7-1.7,2.6-1.1,3.7-2.3c2.8-1.6,3.3-3.4,5.3-5.3 			c3.4-4.1,5.4-6.3,9-9.8c3.2-2.7,5.1-2.6,8.3-6.8c2.3-2.2,2.8-4.1,4.4-6.8c3-3,5.2-4.1,8.3-6.8c2.7-3,4.5-3.6,6.8-7.6 			c1.3-2.5,3.4-2.7,5.3-4.6c3.2-2.2,4.8-3.6,7.5-6c3-2.9,4.6-4.4,6.8-7.6c2.4-2.8,4.3-4,5.4-7.5c0-1.2,1.7,0.4,2.2,0 			c2.5-2.8,5.8-7.7,9.8-12.2c3.3-3.2,5.6-4.4,9-7.5c2.6-2.4,3.8-2.9,6-6.1c0.6-0.7-1.6-1.2-0.7-1.5c2.9-3.3,4.3-5.1,7.6-8.3 			c0.8-1.1,1.3-1.9,2.2-3.1c1.2-0.5,1.8-0.8,3-1.6c0.7-0.9,1.1-1.8,2.3-2.9c0.7-0.7,1.4-0.9,2.3-1.6c1-1.1,0.6-2.4,2.2-3.1 			c0.8-0.9,2.1,0.1,3-0.8c0.6-1.4,2.5-3.7,4.7-6c2.4-2.8,4.5-4.1,7.5-6.8c2.1-1.6,3.7-2.6,6-4.6c1.4-1,0.5-3.2,2.3-4.5 			c1.1-1.8,2.7-1.5,4.4-2.3c1.6-1.5,4.5-5.6,7.7-8.2c2.1-2.3,3.3-3.2,5.3-5.3c1.3-0.9,1.8-1.7,3-3.1c1.3-1,2-1.8,3.7-3 			c2.4-2.6,4.5-3.4,6.7-6c3.8-3.6,5.6-5.8,8.4-10.6c0.3-0.9,1.8,0.3,2.9-0.8c2.7-2.3,5.6-4.7,9-8.3c3.3-2.7,4.9-4.6,8.4-7.5 			c2.8-2.4,4.5-3.7,7.5-6.2c3.8-3.3,5.3-3.2,9.8-8.2c2.4-3.2,4.6-4,7.5-6.8c5-4.5,6.7-8.1,12-12.9c4.7-4.1,7.8-6.1,12.8-9.8 			c1.3-0.6,1.9-1.9,2.3-2.3c1.1-0.6,1.9-0.3,3-0.7c1.5-2.1,2.1-3.3,3.7-5.3c4.5-5.1,7.3-7.9,12.8-12.2c4.1-3.4,7.4-4.3,11.4-8.3 			c2.6-1.8,3.4-3.6,6-5.3c1-1.3,1.7-1.8,3-2.3c2.1-1.9,3.4-3,5.2-5.3c1.7-1.3,2.4-2.4,3.7-3.7c1.4-2.1,2.4-2.8,3.8-4.6 			c0.3-1.2,0.3-2.1,1.5-3c0.4-0.9,1.4-0.8,2.2-1.6c1.2-0.9,1.2-2.4,2.3-3c1.5-1,2.8-0.6,3.7-1.4c2.1-1.2,1.7-3.1,3-4.6 			c1.7-1.4,3.4-1.3,5.3-2.2c1.9-2.1,2.2-4.1,3.8-6.1c2.4-2.2,4.4-2.8,6.7-4.6c4.3-3.1,6.4-5.1,9.8-8.3c3.3-3,5.6-4,8.2-7.6 			c0.9-1.4,1-2.7,2.4-4.5c2.5-2.6,5.2-2.6,8.3-4.5c3.6-2.7,4.5-4.3,9-7.6c2.1-1.2,2.8-3.1,5.4-4.5c1-0.5,2-0.1,3-0.8 			c1-1.1,0.7-2.4,1.3-3.8c2.2-2.6,4.6-2.7,7.7-4.5c1.4-1.1,2.2-1.8,3.8-3.1c2.7-1.8,4.1-3.3,6.8-5.3c2-0.6,3.2-1.3,4.5-2.2 			c0.9-0.1,2.2-1.6,3.7-3c0.9-0.9,2.6-1.3,3.8-2.3c3.6-3.6,4.5-4.3,7.5-8.4c1-0.9,1.4-3.7,2.2-4.6c0.8-1.1,5.1-4,6-5.3 			c5.2-5.8,11.9-6.9,13.6-9.8c1.5-1.5,1.6-3,3.8-3.8c3.5-1.6,5.4-4,9-6c2.6-1.9,4.1-2.8,6.8-4.5c2.7-2.1,4.3-3.4,6.7-5.3 			c4.3-3.3,6.6-5.1,10.6-8.3c2.6-1.6,4-2.6,6.8-4.6c2.8-1.6,4.7-2.4,7.5-4.5c2.5-1.5,2.9-3.6,6-4.6c3.8-0.4,3.6-3.2,9.2-3.8 			c0.7,0.1,1.9-1.3,2.2-3c-0.4-1.8,1.7-1.1,3-2.3c0.6-0.8,0.8-1.5,1.5-2.4c0.4-1.1,0.8-1.5,0.6-2.2c0.6-1.3,0.2-1.9,0-3.1 			c0.2-1.2,0.8-2.1,0.8-3.8c-0.4-1-0.7-2-1.5-3c-1.2-0.6-2.3,0-3-0.8c-1.5-1.1-0.9-2.6-1.5-3.7c-1.4-1.5-2.2-2.1-3.9-3 			c-1.7-1.2-3.1-1.2-5.2-2.3c-0.9-0.8-1.4-1.4-2.3-2.4c-1.8-0.8-2.8-0.8-4.5-1.5c-0.9-1.1-1.3-1.9-2.2-3c-1.8-0.5-2.6-0.7-3.8-0.7 			c-2.7-0.3-3.8,1.7-6.1,1.5c-1.3,0.2-2.1-0.2-2.9,0c-2.2-0.2-3.3,0-4.5,0.8c-1.4,0.4-1.7,1.2-3,1.5c-1.3,0.9-2.5,0.6-3.9,1.5 			c-1.4,0.2-1.9,1-2.9,1.6c-1.2,0.3-1.9,0.5-3.2,0.8c-3.8,1.4-6,2.2-9.6,3.7c-4,1.7-5.8,3.1-9.1,4.5c-1.7,1.1-2.5,1.6-3.9,2.3 			c-1.7,0.9-2.5,1.4-3.7,2.2c-6.3,3-9.5,4.9-15,8.3c-6.2,3.5-9.6,5.3-15.2,9.2c-7.9,4.4-12.1,7.3-19.5,12.1 			c-2.8,1.9-4.6,2.4-6.8,4.6c-9.4,7.5-13.9,8.5-22.6,14.4c-4.1,3.5-6.5,5.7-11.4,8.5c-2.2,1.7-3.8,2.3-5.9,3.7 			c-3.7,2.5-5.3,4.3-8.3,6.8c-2.2,1.5-3,2.9-5.4,3.8c-1.4,0.7-2.5,0.5-3.6,1.6c-1.8,0.8-2,2.1-3,3.1c-2,1.7-3.4,1.9-5.3,3 			c-2.4,2.1-5.2,4.1-6,5.3c-0.9,1.5-2.3,0.8-3.7,1.5c-4.2,1.7-5.6,4.4-9.1,6.8c-3.6,2.8-5.6,4.3-9.1,6.8c-3.6,3-7.4,4.5-9.1,7.6 			c-1.2,1.5-3.1,0.1-4.5,0.6c-1.1,1.1-1.1,2.2-2.2,3c-1.2,1.4-2.4,1.6-3.8,2.4c-3.5,2.4-5.1,4-8.3,6c-3.1,3-4.9,3.9-8.3,7.6 			c-0.5,0.4-1.8-1.2-2.4-0.8c-2.4,3.6-3.9,3.6-6.7,5.3c-1.7,1.8-2.9,2.5-4.5,3.8c-1.3,1.3-1.7,1.9-3,3.1c-2.6,2.4-4.9,2.9-7.6,5.2 			c-4.4,3-6,5.7-9.9,8.4c-3.2,2.6-5.5,3.1-8.3,5.3c-2.4,1.6-3.4,2.8-5.2,4.5c-2.4,1.5-3.8,2.1-6,3.8c-5.1,3.8-7.9,6.2-12.8,9.9 			c-1.9,1.5-3.1,2.1-4.5,3.8c-5.6,3.6-9.1,8.3-13.6,9.9c-0.7,0.5-0.3,1.6-0.7,2.2c-1.1,1.5-3,0.8-3.9,2.2c-1.2,1.8-3.5,3-6,4.6 			c-2.4,2.2-3.7,3.6-6.8,5.3c-0.8,0.4-1.4,0.7-2.2,1.5c-2.8,1.4-3.6,3.2-6.1,5.3c-1.9,1.8-4,1.9-5.3,4.6c-0.6,0.7-0.6,1.2-1.5,2.2 			c-1,1.1-3-0.2-3.9,1.4c-3.4,3.5-7.1,6.6-10.6,8.4c-1.3,0.9-1.5,1.9-2.2,3c-1.2,0.5-2.3,0.2-3,1.5c-4.6,5.4-7.9,6.4-12.8,10.6 			c-3.7,3.3-5.8,5.3-9.8,8.3c-3,2.7-4.6,4.1-8.3,6c-1.3,1.3-3.2,1.8-3.8,3.2c-2.1,2.8-2.6,2.7-4.5,4.4c-3.8,3.7-7.1,4.6-10.6,8.3 			c-1.1,0.8-1.4,1.4-2.3,2.4c-1.2,0.6-2.2,0.6-3.7,1.5c-1,1.1-1.1,2.1-2.3,3c-1.4,1.5-2.5,2.1-4.5,3c-3.6,3.2-6.4,4.3-9.1,7.6 			c-1.2,1.4-1.5,2.1-2.3,3c-2.4,2.6-4.7,2.6-7.5,4.6c-4.4,3.2-5.6,6.7-9.8,9.8c-3.2,2.3-5.8,2.2-8.3,5.4c-0.9,1-0.6,2.5-2.3,3.7 			c-6.5,3.4-10,8.1-16.6,13.6c-5.2,4.5-8.5,6.9-13.5,11.4c-4.1,3.5-6,5.7-9.8,9c-4.5,3.9-7.8,5.3-12.1,9.1c-3.7,3.3-4.9,5.8-8.3,9.2 			c-2.8,1.6-4.7,2.1-7.5,4.5c-2.3,1.9-3.2,3.5-5.3,6.1c-4.4,4.1-7.2,6.4-12.1,10.6c-3.8,3.7-5.9,6.2-10.5,9.1 			c-1.3,1.2-2.1,1.4-3,2.2c-1.8,1.8-0.9,3.7-3,4.6c-5.8,3.1-5.1,3.3-7.5,6c-0.4,0.5-1.6-0.2-2.2,0.8c-1.9,3.1-2.5,3.7-4.6,6 			c-3.1,3.9-5.9,5.1-9.8,8.3c-6.4,5.9-9.9,9.2-15.8,15.3c-4.5,4-6.9,6.2-11.4,10.6c-2.1,2.3-3.5,3.6-6,6.1c-3.8,3.7-6.1,5.9-9.8,9.8 			c-3.3,2.5-4.8,4.3-7.5,6.8c-3.6,3.2-5.6,4.5-9.1,7.6c-3.6,3.5-5.6,5.8-9.1,9.8c-3.2,2.8-4.8,4.5-7.5,7.6c-2.5,2.3-3.7,3.6-6.1,6 			c-2.8,2.9-4.7,4.9-7.6,6.9c-1.2,1.1-0.6,2.4-1.5,3c-0.9,1.7-2,1.8-3,3c-2.5,1.3-2.4,2.4-5.2,4.6c-1.2,0.3-0.4,1.6-1.6,2.2 			c-0.4,0.6-0.9,0.4-1.5,0l-0.7,0.8L1526.8,955.4L1526.8,955.4z">
            </path>
            <path class="st2"
                d="M1308.8,1191.7c-0.7-0.2-0.7-0.9,0-1.5c0.6-0.4,1.2-1.2,2.3-2.2c0.5-0.4,0.3,2.6-0.8,3 			C1309.8,1191.6,1309.2,1192.5,1308.8,1191.7L1308.8,1191.7z">
            </path>
            <path class="st2"
                d="M1313.4,1185.7c-0.2,0.5,1,0.1,1.4-0.7c0.4-0.2,0.5-1.5,0-1.5c-0.8,0-0.4,0.8-0.7,1.5 			C1313.7,1185,1313.2,1185,1313.4,1185.7L1313.4,1185.7z">
            </path>
            <path class="st3"
                d="M1440,871.3L1440,871.3c-1.1,0.4-1.1,1.8-2.2,3c-2.1,2.6-3.7,5.3-6,6.1c-1.1,0.4-1.2,2.1-2.3,3 			c-3.3,3-6.1,6.3-10.6,10.5c-5.3,5.4-8.6,8.5-14.3,14.4c-4.1,4.7-6.1,7.7-10.5,12.9c-6.2,6.4-12.3,12.6-16.6,16.6 			c-0.9,1.1-0.1,2.8-1.5,3.9c-4.2,1.8-6.2,5.4-9.8,9.1c-4.2,4.5-6.7,6.8-10.5,11.3c-3,3.9-4.3,6.3-6.8,9.9 			c-4.6,5.4-7.7,7.9-12.1,13.7c-0.9,1-1.2,2-2.2,3c-1.8,2.2-3,2.9-4.6,4.5c-3.5,3.3-5.1,5.6-8.3,9.1c-3.4,4.1-6.6,7.1-8.2,10.7 			c-0.7,0.6-1.8-0.2-2.2,0.7c-2.4,4.2-4.7,7.6-8.3,12c-2.3,1.9-3.8,2.7-6.1,4.7c-1.9,2.7-2.7,4.3-4.5,6.8c-2.1,2.2-2.7,4-4.5,6 			c-0.9,0.2-1.4,0.3-2.3,0.7c-2.4,2.7-2.3,5.1-4.5,7.6c-2.4,2.9-4.4,3.5-6.8,6.1c-2.4,2.7-3.3,4.9-5.2,7.6c-4.7,6.3-7.6,9.5-12,15.1 			c-4.4,5.2-6.9,7.9-11.4,12.9c-7.3,9.6-11.5,17.2-18.8,25c-2.9,2.8-4,5-6.8,8.3c-2.6,4.4-3.7,7.2-6.8,10.6c-1.4,1.5-2.1,2.1-3,3 			c-2.5,3-4.1,7.1-5.3,8.4c-0.5,0.4-1.9-0.5-2.2,0.7c-1.2,3.3-1.7,3.7-2.9,6.1c-2.4,4.3-6.6,5.7-7.6,10.5c-0.6,2.7-3.3,3.2-5.4,5.3 			c-3.1,4.3-4.4,6.8-7.4,10.7c-3.1,4.8-4.8,7.7-8.3,12.1c-2.2,3.7-4.9,6.8-6,9.2c-0.3,0.5-2.8,3.2-3.1,3.8c-1.7,4.1-3.6,6.2-5.2,8.3 			c-2.7,3.3-7.7,10.6-9.8,12.9c-1.4,1.5-3.8,6-4.5,8.2c0.2,1-1.1,1-2.2,1.7c-4.4,5.5-9.5,17.7-12.1,20.3c-0.6,0.2-0.8,0.2-0.7,0.8 			c-2.4,4.1-4.1,5.3-6,9c-2.8,3.9-4.9,5.8-6.1,9.9c-0.4,1.2-0.2,2.1-0.7,3c-0.6,0.4-1.5-0.1-1.5,0.9c-2.1,4.1-3.4,5.8-5.3,9.8 			c-2.7,3.6-4.5,5.8-6.7,9.8c-2.8,4-5.8,8.6-6.8,10.6c0.2,0.7-0.7,0.4-0.7,0.7c-0.8,0.9-0.4,1.6-0.8,2.3c-0.5,3.8-4.5,4.3-5.3,8.3 			c0,1,0.2,1.6,0,3.1c-2.4,3.2-6,7.1-6.7,8.3c-0.4,1.6,0.8,3.2-0.8,3.8c-0.2,0.7-0.9,0.7-1.5,0.7c-1,1.2-0.6,2.2-1.4,3 			c-0.6,2-1.6,2.7-2.3,4.6c-0.5,1-0.4,1.7-0.7,3c-0.9,1.2-1.7,1.8-2.3,3c-2.4,2.9-3,5.7-5.3,7.5c-0.4,0.9,1.4,2.2,0.8,3.2 			c-2.2,1.3-3.6,3.2-5.3,6c-0.4,0.9-0.7,1.5-1.5,2.2c-0.2,1.6,0.2,2.4-0.8,3.8c-0.3,0.9-0.9,1.3-1.5,2.3c-1.7,2.2-3,3.6-3.9,6.1 			c-0.3,1.7,0.3,2.8-0.7,3.8c-0.5,0.8-1.3,0.9-1.5,1.5c-1.3,1.5-0.2,2.8-1.4,4.5c-4.2,5.1-5.6,11.6-6.1,12.2c-2.2,3.7-4,6.7-4.5,8.3 			c-1,0.8-0.5,1.8-0.8,3c-1,3.4-4.4,4.5-4.5,8.3c-0.1,0.8,1,1.8,0,2.3c-2.9,2.4-2.9,4-4.6,6.8c-0.2,1.5,0.7,2.5,0.8,3.7 			c-0.6,2.1-3.2,3.2-2.2,4.7c0.5,0.5,1.2,1.4,1.4,0.8c1.1-2.2,1.1-2.1,2.4-3.1c0.6-1,1.5-1.1,2.2-1.5c1-1.1,1.8,0,2.3-2.3 			c-0.1-0.6,1.6-0.5,2.1-1.5c0.6-0.6,0.4-1.3,0.8-2.4c1-1.2,3.1,0.3,4.5-0.6c2.2-1,2.2-3.1,3.8-4.5c1.1-0.3,1.6-0.4,2.3-0.7 			c1.3-1.4,1.4-1.1,2.2-3.9c0.3-0.6,1.5,0.2,1.5-0.8c0.4-1.7,2.6-2.6,3.1-5.3c0.2-0.4,0.9,0.1,1.5,0c0.4-0.4,1-2.2,0.8-1.5 			c0.2,0.4-0.2-0.8,0-0.8c0.2-0.9,0.9-0.7,1.4-0.8c2.9-2.8,3.8-7.1,6.8-10.7c1-1.1,1.6-1.6,2.3-3c2.1-2.1,1.8-4.6,4.5-6.8 			c0.6-0.8,1.1-1.4,2.3-1.5c0.2-0.4,0.5-0.3,0.6-0.8c1.2-0.2,0.3-1.3,0.8-2.2c1-1.2,2.4-0.4,3.8-0.8c1.1-0.4,1.8-0.6,3-0.8 			c1.2-1.1,1.2-2.2,2.2-3c2.2-1.8,4.1-1.1,6.1-2.3c1.4-0.7,1.9-1,3-1.7c0.8-0.8,1.2-1.2,2.3-2.1c0.5-0.3,0.9-0.6,1.5-1.5 			c0.8-0.3,1.4-0.3,1.5-0.9c0.8-0.8,0.3-1.7,0.7-2.2c1-0.4,1.6-0.1,2.4-0.7c1-0.2,1.4-0.8,2.2-1.6c0.6-1.5-0.4-3.5,0.7-3.8 			c0.7-0.3,1.7,0.3,1.5,0c-0.8-1.4,2-4.8,2.3-3c-0.4,0.4-1.1-1.6-0.8-2.2c0.7,0,1.3,0.6,1.5,0c1.5-2,2.4-3.9,3.7-6.1 			c1.3-1.3,1.8-1.9,3-3c1.1-1.5,2-2.3,3-3.8c2-1.1,3.2-1.5,5.3-3c2.3-1.3,4.1-1.6,6-3.8c2.2-1.5,2.7-3,4.5-4.6 			c1.4-2.5,2.5-3.5,3.8-5.3c4.4-5.4,6.2-7.6,10.6-13.6c0.1-0.9,0.9-0.8,1.5-1.5c0.9-2.1,4.6-6.5,6-9.9c-0.1-0.5,0.7,0,1.6,0 			c0.6-0.8,0-2.1,0.7-3c1.1-1.1,3.1,0.2,3.8-1.5c0.5-0.1,0.3-0.7,0.8-0.8c0.6-0.6,1.6,0.5,1.6,0c1.6-3.2,3.2-3.2,3-6 			c0.4-0.6,1.7,0.1,2.2,0c0.4-0.7,0.2-1.4,0-2.3c0.9-0.9,2.3-0.7,3-1.5c1-0.9,0.9-1.8,1.5-3.2c1.5-0.8,2.6-0.8,3.7-2.2 			c0.7-0.4,0.5-1.4,1.5-2.2c0.7-0.3,1.5,0.1,2.3,0c2.5-1.3,3.3-2.6,5.3-3.8c2.3-2.3,2.7-5.4,6-5.3c0.3-0.4,0.8,0,1.5,0 			c0.7-0.7-0.2-2,0.8-3c0.5-0.6,1.4-0.6,2.2-0.8c1.7-0.2,2.5-0.8,3.8,0c0.7-0.1,1.6,0,1.5,0.8c0.5,1.1-0.6,1.4-1.5,2.2 			c-0.2,0.2-0.4,0.1-0.7,0c-1.1,0.7-0.6,2.1-1.5,3c-0.7,0.6-1.8,0.4-2.2,1.5c-0.6,0.6,0.5,1.3,0,2.2c-2,3-4.3,5.1-4.6,6 			c0.1,0.9,1.1,1.5,0.8,1.5c-2.7,1.6-2,2.4-3.7,3.9c-0.2,0.4-0.8,0.4-1.6,0.8c-1,1.5-2.3,3-1.5,4.6c0.2,0.4-1,0.6-1.5,0.7 			c-1.1,0.9-1.7,1.5-2.3,2.2c-1.2,1.3-1.7,2.3-2.3,3.8c-0.5,1.5-4.3,3.3-4.5,5.3c0.4,1.4,2.2,0.2,3.7,0c0.8-0.3,1.6-0.5,2.3-0.9 			c1.1-0.8,1.2-1.7,2.2-2.3c0.8-0.6,1.3-1.1,2.3-0.8c1.4,0.2,0.8,3,2.3,2.4c1.8-0.6,1.8-2.8,3-4.6c1.8-2.6,3-2.1,4.6-6 			c0.4-1.3,2.2-0.3,2.9-1.7c0.7-0.6,0-1.6,0.8-2.9c0.6-0.9,2.2-0.5,3-1.5c1.6-1.5,1.5-3,2.3-4.7c1.6-2,2.7-2.4,4.5-4.4 			c0.5-0.9,1.3-0.2,1.6-0.7c1.3-0.7,0.1-2.8,1.4-3.1c3-0.2,4.1-0.2,6.9-1.5c1.1-0.5,2.6-4.2,4.5-6.7c2-2.2,3-3.3,4.6-5.3 			c2.2-2.1,2.7-3.2,5.3-5.4c0.5-0.2,0-1.3,0.6-2.2c0.4-1.6,1.8-1.7,3.1-3.1c1.7-1.8,2.1-3.6,4.5-5.3c1.2-1,2.4-1,3.8-2.2 			c3.5-2.1,4.2-4.8,6.8-7.6c2.4-2.9,4.5-5.2,6-6.8c1-0.8,1.1-2.3,2.2-3.8c1.1-1.4,2.7-1.4,3.7-3c1.7-1.7,1.6-3.2,3.1-4.6 			c1.4-2.9,3.4-3,5.3-6.1c0.9-0.7,2,1.1,3.1,0.9c1.4-0.6,0.4-2.8,1.4-3.9c1-0.3,1.9-0.2,3-0.7c1-0.6,1.4-1,2.2-1.4 			c1.1-1.1,1.8-1.5,2.2-2.4c0.8-1.5-1-3.5,0.8-3.8c2.8-1.3,3.2-3.4,6.7-5.4c0.6-0.3,1.5,0.8,2.3,0c0.8-0.1,1-0.7,1.5-1.5 			c-0.2-0.6-0.4-1,0-1.5c0-1.1,0.8-1.4,1.5-2.2c1-0.6,2.1-0.6,2.2-1.5c0.8-1.3,0.4-2,0.8-3.2c0.3-0.7,0.8-1.1,1.5-1.5 			c1.6-1.9,3.7-1.3,5.3-3.1c0.3-0.4,0.5-0.7,0.7-1.5c0.5-0.8-0.6-1.5,0-2.2c0.6-1.9,2.6-0.4,4.5-0.8c2.4-0.8,3-1.9,6.1-3.1 			c1-0.3-0.3-1.4,0-2.2c0.6-1.1,1.5-1.4,2.2-2.4c2.1-2,3.6-3.3,5.2-5.2c1.1-0.9-0.7-2,0-3c0.6-0.4,1.5,0.2,2.3,0 			c0.9-0.6,1.8-0.8,2.3-1.5c-0.2-1.1-1-1.5-0.7-2.2c0.3-1.3,2.5,0.1,3-0.8c1.4-4.1,3-4.1,6-7.6c0.4-0.6-0.9-1.5-0.7-2.2 			c0.8-1.6,2.8-0.2,3.8-0.8c1.5-1.4,3.8-5.8,6.7-8.4c1.9-1.5,3.6-1.5,5.3-3c0.5-0.9,0.6-1.5,1.5-2.3c0.1-0.7,0.4-1.1,0.8-1.6 			c0.8-0.9,1.3-1.2,2.2-2.2c2.8-3,4-5.3,6.8-9.1c1.2-1.2,1.3-2.8,3-3.8c1.2-0.1,3.7,1.1,3,0c-1.2-2,3.4-4.3,5.3-9.8 			c0.6-1.2,1.8-0.2,2.4-0.6c1.7-1.3,1.3-2.8,2.2-4.6c1-0.6,1.3-1.4,2.2-2.2c1.2-0.3,2.3,0.7,3,0c1.1-0.9-0.4-2.3,0-3.1 			c0.9-0.9,1.9-0.5,3-1.5c1.5-0.8,0.5-3.3,2.2-3.7c0.7-0.6,1.1-0.5,1.6-0.9c1.5-0.6,1-2.2,2.3-3.8c0.9-1.3,2.5-1.4,3.7-3 			c0.4-1.2,0.2-2.1,0.8-3c1.1-1,3,0,3.7-0.8c1-1.1,0.9-2,1.5-3.1c0.8-2.2,2.4-2,3.1-5.4c0.4-1.1,2.1,0.4,2.9,0 			c1.8-1.1,1.5-2.8,2.3-4.5c2-2.4,3.5-3.6,6.1-6.1c1.6-1.2,3.6-1.2,4.5-3.8c0.9-2.2,2.8-4.6,5.3-8.3c0.4-0.8,3-1.2,4.5-2.2 			c0.7-0.9,1-1.2,1.5-1.6c0.6-1.4-0.3-2.8,0.7-3.8c0.8-0.5,1.6-0.2,2.3,0c1.8-0.7,3.9-5.1,6.1-8.4c0.6-1.5,2.3-0.2,3.8-1.4 			c1.4-0.7,1.2-2.3,2.2-3.7c1.6-1.8,2.6-3,4.6-4c1.9-1.3,1.8-5.5,4.5-7.5c1-1.3,2.1-0.3,3-2.4c1.9-4.6,4.7-3.7,6.7-7.5 			c1-2.3,6.2-5.4,9.8-11.4c0.4-0.9,1.7-0.3,3-0.8c1.2-1.2,0.7-3,1.5-4.5c2.3-3.4,4.1-4.8,7.5-6.8c1.4-1.5,3-1.5,4.6-3 			c0.6-1.7-0.3-3.3,0.7-4.6c1.3-0.7,2.4-0.2,3.8-0.7c1.4-1.2,1.2-2.9,3-3.8c0.7-0.8,1.4-0.8,2.2-1.4c1.2-1.2,1.2-2.4,2.4-3.8 			c2.4-3.9,5.3-5.1,9-8.3c2.4-1.9,4.1-2.7,6-4.5L1440,871.3L1440,871.3z">
            </path>
            <linearGradient id="SVGID_00000089545450831526208200000012951629780098938519_"
                gradientUnits="userSpaceOnUse" x1="1788.9015" y1="1113.5187" x2="2160.155" y2="552.5266">
                <stop offset="0" style="stop-color:#2C2F7F"></stop>
                <stop offset="1" style="stop-color:#E8E6F3"></stop>
            </linearGradient>
            <path
                style="fill-rule:evenodd;clip-rule:evenodd;fill:url(#SVGID_00000089545450831526208200000012951629780098938519_);"
                d=" 			M1721.4,1112.2C1721.4,1112.2,1721.7,1112.3,1721.4,1112.2c0.8-0.6,1.7-0.4,2.2-1.5c1.8-4.3,5-7.4,7.5-12.9 			c1.8-2.4,1.7-4.5,3.7-6.8c0.9-0.8,1.5-0.9,2.4-1.5c2.1-2.6,1.4-5.3,3.7-7.6c0.7-0.6,1.9-0.4,2.3-1.5c0.4-3.1,2.5-5.2,4.5-8.3 			c1.9-3.3,3.6-4.7,5.4-7.5c1.5-2.6,2.4-4.3,3-6c0.4-1.3,1.5-1,2.2-1.6c1.5-1.4,1.1-2.9,2.3-4.6c3.3-5.1,3.4-6.5,6.8-9.8 			c0.8-1.3,1.7-1.6,2.2-3c0.8-0.9,0.3-2.1,0.7-3c3.5-4.1,6.2-6,8.4-10c0.2-0.4-0.9-1.2,0-2.2c3.1-3.1,3.2-5.8,6-9 			c2-2.8,4.2-3.6,6-6.9c2.4-4.1,7-10.2,12.1-16.7c2-3.2,3.3-5,5.2-8.3c4.4-5.7,6.4-9.1,10.6-14.4c3.4-5.3,5.7-7.9,9.1-13 			c0.6-0.3,0.2-1.1,0.7-1.5c3.3-3.7,7.2-8.7,11.3-15.2c0.7-1.7,1.9-1.7,3.1-2.9c1-1.3,0.7-2.1,2.3-3.8c0.9-0.4-0.1-1.3,0.7-2.2 			c0.2-0.8,0.9-0.8,1.5-1.5c2.3-1.9,2.3-4,4.5-5.3c0.8-1.1,1.5-1.3,2.4-2.3c1.9-1.4,2.2-3.2,3.7-5.4c2.9-4.3,5.5-6,8.4-10.5 			c1-1.5,1.3-2.6,2.2-3.7c1.8-2.9,3.5-4.2,6-6.1c0.6-0.9-0.6-2.1,0-3c2.1-1.8,3.6-4.6,6-6.8c1.4-1.7,2.4-2.1,3.8-3.8 			c3.3-3.2,4.5-6.3,7.5-9.8c0.2-0.9,1.1-0.4,1.5-0.7c1.1-1.1,0.4-2.3,0.8-3.9c0.8-1.4,2.1-1.8,3-3c1.9-2,2-3.8,3.7-5.3 			c1.1-0.6,1.6-0.7,2.2-1.5c2.1-1,2.5-2.5,3.8-3.8c2.4-3.3,3.4-5.4,6.1-8.3c1.1-1.4,2.2-1.8,3-3.7c1.1-0.9,1.3-1.8,2.2-3.1 			c2-3.3,3.7-4,6.8-7.5c0.6-0.6-0.6-1.6,0-1.6c3.6-2.4,5-4.1,7.5-7.6c0.3-0.4,0.4-1.1,0.9-1.5c0.9-0.9,1.5-0.9,2.2-1.5 			c1.3-1.4,1-2.8,2.2-3.8c1-1.1,1.9-0.9,2.9-1.5c2.1-1.7,1.7-3.9,3.1-6c2-2.3,3.9-2.9,6-5.3c3.6-3.7,4.5-6.8,8.3-10.5 			c1.8-2.6,3.4-3.5,5.3-6.2c2.3-1.8,2.9-3.4,4.5-5.2c2.7-3.1,4.6-4.2,6.8-6.8c4.6-4.4,5.8-8.1,10.5-12.1c1-1.4,1.1-1.8,3-3 			c0.4-0.2-0.8-1.1,0-1.5c2-0.6,3.5-2.9,6-5.3c2.9-3,4.2-5.4,7.6-9.1c1.6-1.6,2.8-2.7,4.5-4.5c3.9-3.9,6.1-6.1,9.2-10 			c1.2-1.6,1.1-3.1,2.1-3.7c1.1-0.4,1.4-0.1,1.5,0c2-1,1.8-2.5,3.1-3.8c1.3-2,2.4-3,3.8-4.6c2.4-2.4,4.3-3.6,6-6 			c0-0.5,1.1,0.4,1.6,0c0.1-0.8-0.9-1.5,0-1.5c1.8-0.9,3.6-3.2,6-5.4c0.6-1.3,1.2-2.1,2.2-2.9c1.4-2,2.1-2.6,3.9-3.8 			c3.9-4.6,6.1-7.1,10.5-11.4c7.2-7.6,13.9-14.8,18.9-19c1.3-1,1.3-2,2.3-3c2.6-4,4.9-5.6,8.3-9.2c2.9-2.6,4.9-3.8,7.6-6.8 			c2.1-2.2,2.8-3.9,5.2-6c1.3-1.3,2.8-1.3,3.9-3c0.4-0.6,0.1-1.3,0.7-1.5c2.1-0.3,1.8-1.6,3-2.3c2.6-2.9,3.8-4.9,6.8-7.6 			c1.6-1.1,2.5-1.7,3.8-3c3.9-2.8,3.6-5.3,9-9.1c1.4-0.6,1.5-2.2,3.1-3.7c1.3-0.8,2.8-0.7,3.7-2.3c1.7-2.5,2.7-3.6,4.5-6.1 			c2.1-2.1,3.2-3,5.2-5.2c3.2-3,5.5-4.2,8.4-7.6c2.8-2.1,3.2-3.9,6.7-6.2c1-0.4,2.2-1.7,3.7-3c2.5-2.1,2.8-2.6,3.8-3.8 			c3-2.6,4.4-4.2,7.6-5.3c1.8-0.9,2.6-1.8,4.5-1.5c1.4,0.3,3.2,1.3,3,3.1c0,0.8-0.7,0.9-1.5,1.5c-0.2,1.1-1.1,1.4-0.8,2.3 			c-0.3,1,0.5,1.3,0.8,2.3c-0.3,1.2-1.7,1.5-2.3,3c0.2,0.6,0.9,1.2,0.8,2.2c-0.7,0.6-1.9,0-2.3,0.8c-0.2,0.6,0.4,1.1,0,1.5 			c0.4,1.5-0.1,2.2-0.8,3c-0.9,1.9-1.5,2.5-2.9,3.8c-0.8,1.5-1.5,2.1-2.2,3.8c-0.7,0.6-1.5,1-1.5,2.3c0,1.1,2.2,1.7,1.5,3 			c-1.3,1.3-1,1.7-1.5,3c-1,1.3-3.5,4.3-2.4,3c0.4-0.5,0.5-0.9,0.9-1.5c2.6-2.5-3.4,4.3-3.8,7.6c0.1,1.7-1.6,1.7-2.2,3.1 			c-0.3,1.1-0.1,1.7,0,3c-0.8,1.7-2.3,2.1-3.7,3.7c-0.9,1.4-1.5,2.2-2.3,3.8c-1.5,1.7-2.6,2.5-3.9,4.6c-1.3,2.3-1,4.3-2.2,6.8 			c-0.8,0.8-1.6,1.3-2.3,2.3c-1.9,3.9-3.1,1.4-2.2,6c-0.2,1.5-2.9,0.7-3.7,3.8c-1.5,3.5-3.9,7.2-4.6,9.8c-0.5,1.1,1.2,0.9,0.8,2.3 			c-1.2,1.8-2.1,1.6-3,3c-0.7,1.1-2.1,3.7-3.1,5.3c0,1.2,1.5,0,0,3.1c-2.7,4.7-6.9,5.3-9.1,9.8c-1.1,2.3-1.4,3.7-2.2,6 			c0,1.7,0.8,3.1-0.7,4.5c-1.6,1.5-2.8,1.8-4.5,3.8c-0.7,1.1-0.8,1.9-1.5,3.1c-1.3,2.6-2,4.1-3.1,6.8c-1.6,2.8-2,4.7-3.7,7.6 			c-0.9,0.7-1.3,1.4-2.2,2.2c-0.4,0.7-0.9,0.9-1.6,1.6c-1.5,1.8-0.5,3-2.3,6c-0.5,0.2,1.2,0.6,0.8,1.4c-2.4,1.8-1.6,2.2-2.3,3.9 			c-1.3,2.3-2.2,3.5-3.7,6.1c-2.1,2.8-4,4.2-6.1,7.5c-1.5,2-2.4,3.3-3.8,6.1c-0.8,1-0.6,2.2-1.5,3.1c-2.4,1.4-2.3,0.7-2.9,3.1 			c-0.2,1.1,0.7,2,0.7,3.7c-0.3,0.7-0.5,1.2-0.7,2.3c-2.5,3.4-3.9,4.9-6.1,8.3c-1.9,2.9-2.6,4.7-4.5,7.5c-1.9,2.6-3.2,3.7-5.3,6.1 			c-3,4.2-4.7,6.7-7.6,11.4c-0.7,1.6-1.4,3.7-2.4,4.5c-2.1,2.8-3.5,3.5-5.2,6.8c-0.3,1.1-0.5,2.5-0.7,3.1c-2.9,3.4-4.7,4.7-7,8.3 			c-1,2-0.6,3.9-2.1,6.1c-1.4,1.2-2.9,1.2-4.5,3c-1.7,2-1.2,4.5-3.1,6.9c-1.1,1.1-2.2,1.3-3,2.2c-1.1,1.5-1.3,2.3-2.4,3.8 			c-0.9,2.1-1.1,3.7-3,6c-0.2,0.6-0.7,0.8-1.5,1.4c-1.7,2.6-3.1,3.6-4.5,6.1c-0.4,1.6-0.1,2.7-0.7,3.8c-1.3,1.1-2.4,1.1-3,2.2 			c-2,1.9-1.2,4.5-3.1,6.1c-1,0.6-2.3,0.2-2.2,1.5c-1.1,3.7-2.7,6.2-5.3,9.8c-1.5,2.3-3,3.2-4.5,5.3c-1.1,1.7-1.4,2.6-2.3,3.7 			c-1.9,3.2-3.6,4.3-5.3,6.9c-1.5,1.9-1.6,3.4-3,5.3c-1.1,1.1-2.4,1.1-3.8,2.3c-0.7,1.5-0.4,3-1.6,4.5c-1.7,2.4-0.4,2.8-1.4,4.5 			c-0.7,1.5-1.2,2.3-2.2,3.9c-0.9,0.6-1.6,1-2.4,2.2c-0.8,1.1-0.2,2.5-1.5,3.1c-0.6,0.7-1.5,0.2-1.5,0.7c-1.1,4-2.4,6.4-3.8,8.3 			c0.1,0.8-0.8,0.6-0.8,1.5c-1.1,3.1-1.4,4.9-3.8,7.6c-0.4,0.4-0.7,0.6-1.5,1.5c-1.1,1.2-0.6,2.8-2.3,4.6c-0.4,0.6-1.3,0.7-2.2,1.5 			c-1.2,1.7-1.1,3.1-2.3,4.5c-0.5,1.3-1.1,1.8-1.5,3c-1.3,1.5-1.9,2.5-3,3.8c-1.1,1.5-2.1,1.9-3,3.2c-1,1.5-0.7,2.9-1.5,4.4 			c-1.4,2-2.7,2.8-4.5,4.5c-0.3,0.9-0.6,1.3-1.6,2.4c-0.6,1.3-0.3,3-1.4,3.7c-0.8,0.6-1.5,0.3-1.5,0.8c-1,3-1.4,4.7-3.8,6.8 			c-0.2,0.3-0.8,0.3-0.7,0.7c-1.1,0.7-0.6,1.6-0.9,2.4c-0.9,1.8-1.5,3-3,3.7c-1.1,0.6-1.6,0.4-2.3,0.8c-1.4,1.2-1.1,2.8-2.3,4.5 			c-1.5,4-3.9,5.9-4.6,10.5c-0.3,1-0.3,1.5-0.7,2.4c-0.2,2-0.7,2.9-1.5,4.6c-1.4,1.7-2.8,2.3-4.5,3.7c-2.8,3.8-2.8,7.2-6,10.6 			c-0.6,0.8-1.2,1-1.5,1.5c-1.5,1.7-1.4,3-2.3,4.6c-1.2,1.3-2.6,1.4-3,3.1c-0.6,1.2,0.7,2.3,0,3c-1.3,1.9-0.3,2.5-1.4,3 			c-0.4,1-0.8,1.2-1.6,1.5c-1.1,1.3-1.9,2.1-2.3,3.8c0.2,0.9,1.2,1.3,0.8,2.2c-2.9,3.5-3.9,4.7-5.9,9.2c-1.3,2.9-4.7,3-6.1,6.1 			c-0.7,1.7-0.9,2.8-1.5,4.5c-0.3,1.3-0.5,2.1-1.4,3.7c-0.7,1.3-1.9,1.5-3.1,3.1c-2.8,2.8-3.9,7.6-4.6,9.1c-0.8,0.8-1.7,0.7-2.1,1.5 			c-3.3,1.9-2.7,4.9-4.6,8.3c-1.5,3-5.3,5.3-4.5,7.7c-0.1,0.7-1.3,0.2-2.2,0.7c-1.6,1-0.7,3.2-2.4,5.3c-0.2,0.6-1.4,0.6-1.4,1.5 			c-0.3,0.8,1.2,1.5,0.7,2.3c-1.6,1.1-2.3,2.2-3.7,3.9c-3,3.7-5,5.8-7.6,9.8c-1.9,3.7-1.1,7.1-4.5,9.8c-0.4,0.5-0.9,0.8-1.6,1.5 			c-2.6,2.1-1,5.4-3.8,7.5c-0.4,0.8-1.4,0.6-1.4,1.5c-0.6,1,0.9,1.9,0,2.4c0.2,0.2-0.2,0.3,0,0L1721.4,1112.2L1721.4,1112.2z">
            </path>
            <path class="st5"
                d="M1608.2,1557c1.1,0.8,1.1,1.5,0.9,2.2c-0.1,1.2-1.2,1.6-2.2,1.6C1605.5,1560.4,1607.4,1556.4,1608.2,1557 			L1608.2,1557z">
            </path>
            <path class="st5"
                d="M1605.2,1564.5c0.1-1.1-0.2-2.3,0.8-2.2c0.7-0.2,0.6,1.2,0.9,2.2c-0.5,0.9-0.6,2.2-1.6,2.3 			C1604.4,1566.3,1605.1,1565.1,1605.2,1564.5L1605.2,1564.5z">
            </path>
            <path class="st6"
                d="M1834.6,1149.3c-1.7,2-0.7,3-1.6,4.6c-1.5,2.6-3,3.3-4.5,5.3c-1.7,2.8-2.1,4.3-3,6.8 			c-1.7,2.8-2.6,4.3-4.6,6.8c-0.4,1.1-0.9,1.7-1.5,3.1c-3.7,4.8-4.9,8-7.5,13.7c-3.1,5-4.4,8-7.7,12.9c-0.5,1.9-1,2.9-2.2,4.5 			c-0.9,1.3-1.5,2.2-3,3.8c-0.4,0.9-1.2,1.3-1.5,2.3c-0.5,1.1,0.1,1.9-0.8,3c0,0.2-0.8,0.2-0.8,0.7c-0.9,1.3,0.3,2.2,0,3.1 			c-0.9,0.8-1.4,0.9-2.2,1.5c-2.6,2.6-2,5.7-3.8,9c-2.1,2.5-3.9,3.7-6,6c-3.4,5.3-4.7,9.4-8.3,13.7c-1.8,2.8-2.8,6.8-2.9,8.3 			c-0.2,1.1-1.5,0.8-2.4,1.5c-1.9,1.6-1,4-2.2,6.9c-0.9,1.3-1.7,2-3,3.8c-1,2-1.4,3.4-3,5.3c-0.5,1.4-1.1,1.9-1.5,3 			c-3.2,4.2-4.5,9.4-6,12.2c-0.5,0.8-1.4,1.1-2.4,2.2c-3.2,3.6-1.5,8.1-5.2,11.3c-0.6,1-1.2,1.3-2.3,2.3c-1.5,1.9-2.1,3.1-3,5.4 			c-0.9,2.1-0.4,3.8-1.5,5.3c-0.6,0.9-1.1,1-1.5,1.3c-1.3,2-1.2,3.4-2.2,5.5c-0.3,0.8-1.1,0.4-1.6,0.8c-1.1,0.7-0.6,2-1.4,3.1 			c-0.9,0.9-2,0.7-2.3,1.4c-0.5,1.2-0.1,1.5,0,2.4c-0.5,1-2,1.1-1.5,2.2c-0.1,0.4,0.9,0.5,0.8,0.7c-2,3.8-1.4,4.6-3.8,6.9 			c-0.6,0.2-1.3,0.5-2.3,1.5c-1.2,0.9-1.5,1.9-2.2,3c-1.2,1.9-1.8,2.8-2.3,4.5c-0.4,1.3,0.1,2.4-0.8,3.1c-0.4,0.8-1.1,0.5-1.4,1.5 			c-1.9,3.8-3,5.1-5.3,8.5c-3.1,6-5.1,9-8.3,15.1c-3.5,5.8-5.4,9.2-8.3,15.2c-3.8,7-5.9,10.9-9.1,18.1c-3.7,6.7-5.6,11.8-9,17.4 			c-0.5,1.1-1.5,1.1-2.3,2.3c-0.2,1.3,0.4,2.7,0,3.9c-1.8,3.8-4.7,8.5-7.5,14.3c-1.9,2.8-2.9,4.3-4.5,7.5c-2.7,5-4,9.4-5.9,13.7 			c-0.3,0.3-1.3-0.1-1.6,0c-1.4,1.4-0.7,2.9-1.5,4.5c0,1.5-0.3,2.5-0.9,3.8c-0.9,1.1-1.5,1.5-2.2,2.4c-4.3,5.2-3.6,10-7.5,15 			c-0.6,0.8-1.4,0.9-1.6,1.5c-0.4,1.1-0.1,1.7-0.7,2.4c-0.1,1.6-1.6,3.2-1.5,2.9c-3.6,7.7-6.8,17.7-9.1,18.9 			c-2.2,2.1-3.4,6.8-4.5,7.7c-2.1,0.5-3.2,2.8-4.4,5.3c-4.3,7.1-9.4,16.7-10.6,18.2c-2.9,2.2-4,1.1-6.1,3c-1.3,1.7-0.6,4.2-3,5.3 			c-1.9,1.1-2.4,3.7-3,6.7c0.3,0-2.7,3.6-4.6,6.2c-0.9,2.1-1.1,3.6-2.3,5.3c-1.2,1.8-1.5,3.9-3,4.5c-2.3,0-2.6,0.9-5.4,2.3 			c-1,0.2-1.5-1.9-2.2-1.5c-3.3,3.2-2.1,5.5-5.3,9c-1.2,1.1-1.5,2-2.3,3.2c-1.2,2.7-0.8,4.7-3,6.7c-0.2,0.9-1.1,0-1.5-0.8 			c-3.2-1.3,0.4-4.8,2.2-7.5c0.9-2.4-0.9-3.9-0.7-6.1c0.6-3,2.7-4.3,3-7.5c0.3-1.3,1.9-2.9,0-3.8c-1.8-0.7-4.7,0.6-6.8,2.2 			c-1.6,1.6-2.1,2.7-3,4.6c-2.4,3.8-3,6.4-4.5,10.6c-1.1,2.7-1,4.5-2.2,6.7c-1.9,1.9-3.6,1.9-5.3,3.9c-1.9,2.5-0.6,5.6-3,8.3 			c-1,0.9-1.8,1.5-3.1,2.4c-1.1,1-2,1.4-3,3c-1,1.3-0.8,2.5-1.6,4.6c-0.5,1.4-1,2.4-2.2,4.5c-1,2-0.6,4.7-3.1,5.3 			c-1.2,0.6-2-0.2-3,0c-1.7,0.8-2.5,1.5-3.7,3c-3.9,3.5-2.8,7.7-5.2,12.2c-1.1,1.9-2,2.5-3,4.5c-0.8,1.7-0.4,3.2-1.5,5.3 			c-0.9,0.8-1.7,0.9-3,1.5c-0.7,1.2-0.9,2.2-2.3,3c-1.2,1.1-2.8,0.7-3.8,2.4c-1.1,0.6-0.9,1.6-1.5,3c-0.9,1.1-1.6,1.8-2.9,2.9 			c-0.8,1.2-1.1,3.4-2.3,3c-1.6-0.3-1.7-1.7-2.3-3c0.1-1.4,0.6-1.8,0.8-2.9c0.5-2.6,0.7-4.1,0.7-6.2c-0.3-2.8,0.7-3.4,0.8-6 			c0.1-1.8,1.5-10.4,1.5-12.1c1.5-7.8,1.9-9.8,3-19.8c2.5-14.2,2.7-11.3,4.7-18.1c0-1.4-0.8-2.2-0.8-3.1c0.3-2.6,1.8-3.5,2.2-6 			c1.2-2.4,1-4,1.5-6.8c0.7-3.4,0.7-5.6,1.6-9c0.6-2.8,1.9-4.1,2.2-6.8c0.2-1.5,0-2.4,0-3.8c0.5-1.8,1.1-2.7,1.5-4.7 			c0.4-1.8,0.6-3.2,0.8-5.1c0.8-2.9,0.8-3.3,2.2-7.7c0.2-0.4-0.2-0.9,0-1.5c-0.1-1.3,1.3-4.6,1.5-2.9c-0.2,0.4-0.4-1.1,0-1.7 			c-0.3-1.1,0.8-1.3,0.8-2.2c0.8-1.7,0.2-2.5,0.8-3.8c0-1.9,1.1-2.6,1.5-4.5c0.2-0.5,0.1-0.8,0-1.5c0.9-3.2,1.3-5.1,2.3-8.3 			c1.3-3.7,1.5-5,3.7-9.1c0.9-1-0.1-1.5,0-2.3c0.1-1.3,0.7-1.9,0.9-3c0.2-0.2,2.8-5.9,3.8-9.9c-0.2-0.8-0.2-1.3,0-2.2 			c1-6.2,3.6-9.3,5.3-15.1c2.1-6.1,3-9.6,4.5-16c2.6-7.6,3.6-12.4,6.8-20.4c1.9-5.4,3.8-8.3,6-13.7c5-11.8,7.3-18.5,11.3-30.2 			c2.7-7.6,3.8-9.4,6.8-19.9c0.2-0.9,1.5-0.8,2.3-1.4c0.8-1.5,1.3-5.4,1.4-4c-0.2,0.9-1.1-1.4-0.7-2.1c2-2.9,3-5.1,4.6-8.3 			c3.6-6.6,5-10.5,8.3-17.4c5-11.9,8-18.6,13.6-30.4c4.3-10.2,6.7-16,11.3-25.7c4.7-9.6,7.8-14.7,12.1-24.3 			c4.7-9.2,11.3-20.6,13.6-27.4c1-1.7,0.1-1.4,0.7-2.9c-0.1-0.5,1.1,0.2,1.5-0.8c1.5-1.3,3.2-6.2,5.3-10.6c3-5.8,5-9,8.2-15.1 			c7.2-13.2,13.6-24.3,18.2-34c0-0.8,1-0.2,1.5-0.8c2.5-4.1,5.1-10.3,7.6-15.9c0.2-1.2,2-0.4,2.2-1.5c0.9-2.1,1.5-5.4,3.8-8.3 			c0.9-1.3,1.8-1.5,3-3.2c1.6-2,1-4.3,3.1-6.8c0.4-0.6,1.1-0.8,1.4-1.5c1.5-1.7,3.9-8.7,7.6-14.3c0.8-0.7,1.6-0.5,2.2-0.7 			c3.1-5,5.6-11.6,8.3-16.7c0.3,0.1,0-0.5,0-0.8L1834.6,1149.3L1834.6,1149.3z">
            </path>
        </g>
        <g>
            <polygon class="st5" points="2055.6,444.6 2055.6,444.6 2055.6,444.6 		"></polygon>
            <path class="st5"
                d="M2192.4,391.2L2192.4,391.2l-4.8-1.4c0,0-15.1,1.2-122.2,89.9c-37.2,30.8-145.7,133.4-160.8,147.7 			c-0.1,0.1-0.2,0.2-0.3,0.3c0,0,0,0,0,0c-0.5,0.6-0.9,0.9-1.4,1.4l16.5-10.5c40-23.5,86.4-37,136-37c15.7,0,31,1.6,46,4.2 			c0,0,42.1-38.4,53.2-45.6c22.9-14.8,56.9-1.7,59.5,23.2c1.5,14.8-4,33.1-8.8,45.6c-0.1,0.2-0.2,0.4-0.3,0.6c0,0.2-0.1,0.5-0.2,0.7 			c-3.1,7.9-5.7,13.2-5.7,13.2c75.6,47.8,126,131.9,126,227.7c0,115.1-72.6,213.3-174.4,251.9v218.8c219.4-44.3,385-238.5,385-470.8 			C2535.7,633.9,2390.6,450.3,2192.4,391.2z">
            </path>
            <polygon class="st5" points="1858.2,507.3 1858.2,507.3 1858.1,507.2 		"></polygon>
            <path class="st5"
                d="M906.8,591.7V365.4l-164.3,1.6L464.3,557.9l88.3,177.8l142.9-93.5v694.7h211.4v-226.2 			c-44.5-76.4-70.5-164.9-70.5-259.5C836.3,756.5,862.3,668.1,906.8,591.7z">
            </path>
            <path class="st5"
                d="M1723,568c0.5-0.4,1.2-1.1,1.9-1.7l1.5-1.3c0.1-0.1,0.2-0.1,0.3-0.2c2.1-1.5,3.3-2.7,4.9-4.2l2.2-1.8 			c-9.2-12-19-23.5-29.3-34.6c-87.7-94.1-212.4-153.4-350.9-153.4c-203,0-376.6,126.8-446.8,305.2c-21.4,54.3-33.5,113.3-33.5,175.1 			c0,54.6,9.6,106.9,26.4,155.8h7.1H939h151h43.9c-31.3-44.1-50-97.7-50-155.8c0-148.6,120.9-269.6,269.6-269.6 			c90.2,0,170.1,44.7,219,113l150-126.2C1722.7,568.2,1722.9,568.1,1723,568z">
            </path>
            <path class="st5"
                d="M1813.7,713.7L1813.7,713.7l-0.1-0.5c-0.1-0.4-0.2-0.8-0.3-1.2l0,0l-0.5-1.5l-160.6,164.8c-0.1,0-0.1,0-0.1,0 			c-0.1,0.1-0.2,0.2-0.2,0.4l-34,34.9c-0.1,0.1-0.3,0.2-0.4,0.3l-1.3,1.5c-5.3,22.5-13.2,43.9-23.7,63.9 			c-5.7,10.8-12.1,20.7-19.1,30.5h28.5h15.6h129.8l85-117.7c1-12.6,1.9-25.2,1.9-38c0-43.4-6.3-85.2-17.1-125.2 			C1815.7,721.9,1814.8,717.7,1813.7,713.7z">
            </path>
            <path class="st5"
                d="M1965.4,382.9l5.9-4.2c-91.9,16.3-174.6,58.8-240.6,119.5c11.2,12,21.8,24.4,31.9,37.4L1965.4,382.9z">
            </path>
        </g>
    </g>
</svg>